<svg xmlns="http://www.w3.org/2000/svg" viewBox="0 0 1280 800"><defs><style>.a{fill:#fff;}.b{fill:#dce7e9;}.c{fill:#f1625f;}.d{fill:#fbba40;}.e{fill:#4eb84b;}.f{fill:none;stroke:#fff;stroke-miterlimit:10;stroke-width:4px;}</style></defs><path class="a" d="M1245.16.5H35.84A35.34,35.34,0,0,0,.5,35.84V765.16A35.34,35.34,0,0,0,35.84,800.5H1245.16a35.34,35.34,0,0,0,35.34-35.34V35.84A35.34,35.34,0,0,0,1245.16.5Zm19.2,785.73H15.25V88.55H1264.36Z" transform="translate(-0.5 -0.5)"/><path class="b" d="M1245.16.5H35.84A35.34,35.34,0,0,0,.5,35.84V88.55h1280V35.84A35.34,35.34,0,0,0,1245.16.5Z" transform="translate(-0.5 -0.5)"/><rect class="a" x="324.59" y="19.38" width="823.81" height="49.12" rx="7.15"/><circle class="c" cx="47.12" cy="45.64" r="13.4"/><circle class="d" cx="91.77" cy="45.64" r="13.4"/><circle class="e" cx="136.43" cy="45.64" r="13.4"/><polygon class="a" points="191.98 45.63 221.04 62.41 221.04 28.86 191.98 45.63"/><polygon class="a" points="1205.75 38.79 1213.85 46.29 1216.3 35.52 1205.75 38.79"/><polygon class="a" points="276.25 45.63 247.19 28.86 247.19 62.41 276.25 45.63"/><circle class="a" cx="1247.04" cy="27.76" r="4.39"/><circle class="a" cx="1247.04" cy="43.15" r="4.39"/><circle class="a" cx="1247.04" cy="58.53" r="4.39"/><path class="f" d="M1196.78,60.53a16.14,16.14,0,1,1,16.13-16.13" transform="translate(-0.5 -0.5)"/></svg>