<svg xmlns="http://www.w3.org/2000/svg" xmlns:xlink="http://www.w3.org/1999/xlink" viewBox="0 0 210 144"><defs><style>.a,.ab,.ag,.ap,.h,.i,.l,.n,.q,.v,.x,.y{fill:none;}.b{fill:#f5e6bf;}.c{fill:#fecb81;}.d{fill:#ec9c73;}.e{fill:#805e41;}.f{fill:#ea5a44;}.g{fill:#f9a368;}.af,.ai,.ap,.h,.w,.y{stroke:#805e41;}.ag,.ai,.ap,.h,.i,.l,.q,.w,.x{stroke-linecap:round;}.ap,.h,.i{stroke-linejoin:round;}.af,.h,.l{stroke-width:1.5px;}.i{stroke:#ed4634;}.j{fill:#4c5c6a;}.k{fill:#faa93e;}.l{stroke:#d64128;}.ab,.af,.ag,.ai,.l,.n,.q,.v,.w,.x,.y{stroke-miterlimit:10;}.m{clip-path:url(#a);}.n{stroke:#4c5c6a;}.n,.q,.v,.w,.x{stroke-width:2px;}.o{clip-path:url(#b);}.p{fill:#ee9860;}.q{stroke:#faa93e;}.r{fill:#e47b43;}.s{clip-path:url(#c);}.t{fill:#d64128;}.u{clip-path:url(#d);}.ab,.v{stroke:#69482e;}.af,.ai,.w,.z{fill:#f7f5c1;}.x{stroke:#f6a268;}.ag,.y{stroke-width:0.5px;}.aa{fill:#69482e;}.ac{fill:#d5a86a;}.ad{clip-path:url(#e);}.ae{clip-path:url(#f);}.ag{stroke:#f9a368;}.ah{clip-path:url(#g);}.aj{clip-path:url(#h);}.ak{fill:#faf7c9;}.al{fill:#b2dfda;}.am{clip-path:url(#i);}.an{clip-path:url(#j);}.ao{clip-path:url(#k);}.aq{clip-path:url(#l);}</style><clipPath id="a"><path class="a" d="M92.7,64.44h0A13.26,13.26,0,0,1,106,51.18h0a13.27,13.27,0,0,1,13.27,13.26h0"/></clipPath><clipPath id="b"><rect class="a" x="102.61" y="42.14" width="6.44" height="12.27" rx="2.9"/></clipPath><clipPath id="c"><rect class="a" x="102.69" y="115.6" width="6.28" height="11.97" rx="2.9"/></clipPath><clipPath id="d"><path class="a" d="M93,137.37h0A12.94,12.94,0,0,1,106,124.43h0a12.94,12.94,0,0,1,13,12.94h0"/></clipPath><clipPath id="e"><path class="a" d="M30,137.37h0a13,13,0,0,1,13-13h0a13,13,0,0,1,13,13h0"/></clipPath><clipPath id="f"><rect class="a" x="39.71" y="115.48" width="6.32" height="12.04" rx="2.9"/></clipPath><clipPath id="g"><path class="a" d="M42.54,90.61h3.69a7.28,7.28,0,0,1,7.28,7.28v12.16a9.28,9.28,0,0,1-9.28,9.28H42.54a9.28,9.28,0,0,1-9.28-9.28V99.89A9.28,9.28,0,0,1,42.54,90.61Z"/></clipPath><clipPath id="h"><path class="a" d="M155.76,137.37h0a13.16,13.16,0,0,1,13.16-13.16h0a13.17,13.17,0,0,1,13.17,13.16h0"/></clipPath><clipPath id="i"><rect class="a" x="165.59" y="115.23" width="6.39" height="12.17" rx="2.9"/></clipPath><clipPath id="j"><path class="a" d="M156.43,64.44h0a12.72,12.72,0,0,1,12.72-12.71h0a12.71,12.71,0,0,1,12.72,12.71h0"/></clipPath><clipPath id="k"><rect class="a" x="165.93" y="43.05" width="6.17" height="11.76" rx="2.9"/></clipPath><clipPath id="l"><rect class="a" x="159.63" y="18.76" width="19.78" height="28.06" rx="9.28"/></clipPath></defs><rect class="b" width="210" height="144"/><rect class="c" x="39.12" y="28.79" width="7.4" height="25.3" rx="3.7"/><path class="c" d="M24.41,64.44h0A17.58,17.58,0,0,1,42,46.87h2.18A17.57,17.57,0,0,1,61.74,64.44H24.41Z"/><path class="d" d="M39.12,38.58V44.3a7.87,7.87,0,0,0,3.63.84,7.65,7.65,0,0,0,3.77-.93V38.66a7.76,7.76,0,0,0-3.77-.92A7.87,7.87,0,0,0,39.12,38.58Z"/><rect class="c" x="29.27" y="27.3" width="27.58" height="5.7" rx="2.85"/><rect class="e" x="30.11" y="20.54" width="25.46" height="6.91" rx="1.85"/><rect class="f" x="30.51" y="30.5" width="25.11" height="1.58" rx="0.79"/><rect class="c" x="33.5" y="12.04" width="19.18" height="32.16" rx="9.59"/><rect class="g" x="39.27" y="29.41" width="7.69" height="2.18" rx="1.09" transform="translate(73.61 -12.61) rotate(90)"/><path class="h" d="M40.19,27.17a4,4,0,0,0-4.36,0"/><path class="h" d="M50.73,27.17a4,4,0,0,0-4.36,0"/><line class="i" x1="40.51" y1="38.41" x2="45.66" y2="38.41"/><path class="e" d="M43.07,11.31A12.93,12.93,0,0,0,30.56,22.1h25A12.92,12.92,0,0,0,43.07,11.31Z"/><path class="c" d="M33.52,22.5V21.39A3.13,3.13,0,0,1,36.32,18H49.9a3.13,3.13,0,0,1,2.8,3.38V22.5"/><ellipse class="e" cx="33.77" cy="18.01" rx="1.74" ry="1.82"/><ellipse class="e" cx="48.97" cy="17.4" rx="1.74" ry="1.82"/><ellipse class="e" cx="53.76" cy="19.25" rx="1.74" ry="1.82"/><ellipse class="e" cx="31.28" cy="19.5" rx="1.74" ry="1.82"/><ellipse class="e" cx="33.01" cy="19.9" rx="1.74" ry="1.82"/><ellipse class="e" cx="32.03" cy="22.74" rx="1.74" ry="1.82"/><ellipse class="e" cx="32.25" cy="28.12" rx="1.74" ry="1.82"/><ellipse class="e" cx="40.19" cy="16.96" rx="1.74" ry="1.82"/><path class="e" d="M30.87,23.87a1.82,1.82,0,0,1,0-3.64"/><path class="e" d="M31.43,26.38a1.82,1.82,0,0,1,0-3.64"/><ellipse class="e" cx="35.05" cy="14.89" rx="1.74" ry="1.82"/><ellipse class="e" cx="33.01" cy="16.59" rx="1.29" ry="1.42"/><ellipse class="e" cx="42.57" cy="16.96" rx="1.29" ry="1.42"/><ellipse class="e" cx="39.62" cy="12.43" rx="1.29" ry="1.42"/><ellipse class="e" cx="47.27" cy="12.43" rx="1.29" ry="1.42"/><ellipse class="e" cx="54.39" cy="22.05" rx="1.29" ry="1.42"/><ellipse class="e" cx="54.68" cy="20.19" rx="1.29" ry="1.42"/><ellipse class="e" cx="51.5" cy="13.65" rx="1.29" ry="1.42"/><ellipse class="e" cx="53.61" cy="29.37" rx="1.29" ry="1.42"/><ellipse class="e" cx="41.28" cy="12.04" rx="1.29" ry="1.42"/><ellipse class="e" cx="51.21" cy="15.55" rx="1.29" ry="1.42"/><path class="e" d="M54.93,19.9a1.43,1.43,0,0,1,0,2.84"/><path class="e" d="M55.57,22.05a1.43,1.43,0,0,1,0,2.84"/><path class="e" d="M53.12,26.53a1.43,1.43,0,0,1,0,2.84"/><ellipse class="e" cx="38.26" cy="13.44" rx="1.74" ry="1.82"/><ellipse class="e" cx="43.94" cy="12.43" rx="1.74" ry="1.82"/><ellipse class="e" cx="49.18" cy="13.65" rx="1.74" ry="1.82"/><ellipse class="e" cx="52.65" cy="16.19" rx="1.74" ry="1.82"/><ellipse class="e" cx="53.1" cy="17.68" rx="1.74" ry="1.82"/><ellipse class="e" cx="52.02" cy="18.78" rx="1.74" ry="1.82"/><ellipse class="e" cx="55.05" cy="18.53" rx="1.74" ry="1.82"/><ellipse class="e" cx="50.14" cy="15.58" rx="1.74" ry="1.82"/><path class="e" d="M37.75,35.56h0a2,2,0,0,1,1.87-2h7a2,2,0,0,1,1.87,2h0"/><path class="f" d="M41.32,32.18H44.9a0,0,0,0,1,0,0v1.7a1,1,0,0,1-1,1H42.36a1,1,0,0,1-1-1v-1.7A0,0,0,0,1,41.32,32.18Z"/><rect class="e" x="40.85" y="40.28" width="4.24" height="2.29" rx="1.14"/><path class="e" d="M52.9,26.66a.73.73,0,0,0-.72.75v7.51H52c0,4.55-3.46,5.21-3.46,5.21V34.92H47.17a1.42,1.42,0,0,1,.08.45V39.6c0,1-.07,1.82-1.23,1.82H40c-1.16,0-1.22-.82-1.22-1.82V35.37a1.76,1.76,0,0,1,.07-.45H37.32v5.21s-3.22-.94-3.22-5.21H34V27.41a.73.73,0,0,0-.72-.75h0a.73.73,0,0,0-.71.75v7.51c0,5.07,4.8,9.27,10.4,9.27s10.6-4.28,10.6-9.27V27.41a.73.73,0,0,0-.71-.75Z"/><path class="j" d="M49.09,47.58A6.89,6.89,0,0,1,37,47.64a17.59,17.59,0,0,0-8.19,5.28V64.44H57.25V52.68A17.69,17.69,0,0,0,49.09,47.58Z"/><path class="e" d="M36.88,30.22a1.67,1.67,0,0,1,3.33,0"/><path class="e" d="M46.55,30.22a1.67,1.67,0,0,1,3.33,0"/><path class="k" d="M119.23,37.89V23.24a11.52,11.52,0,0,0-11.52-11.51h-3.5A11.51,11.51,0,0,0,92.7,23.24V37.89A11.48,11.48,0,0,0,94,43.24H117.9A11.49,11.49,0,0,0,119.23,37.89Z"/><rect class="c" x="92.08" y="29.39" width="27.91" height="5" rx="2.25"/><line class="l" x1="94.95" y1="32.72" x2="97.24" y2="32.72"/><line class="l" x1="115.68" y1="32.72" x2="117.76" y2="32.72"/><path class="c" d="M92.7,64.44h0A13.26,13.26,0,0,1,106,51.18h0a13.27,13.27,0,0,1,13.27,13.26h0"/><rect class="c" x="102.61" y="42.14" width="6.44" height="12.27" rx="2.9"/><g class="m"><path class="j" d="M99.54,58l6.29,6.78H96.51l2-6.55A.59.59,0,0,1,99.54,58Z"/><path class="j" d="M112.25,58,106,64.78h9.32l-2-6.55A.58.58,0,0,0,112.25,58Z"/><line class="n" x1="99.03" y1="51.51" x2="99.03" y2="59.82"/><line class="n" x1="112.57" y1="51.18" x2="112.57" y2="59.49"/></g><g class="o"><path class="p" d="M104.69,17.72h4.07A7.28,7.28,0,0,1,116,25V37.7A9.28,9.28,0,0,1,106.76,47h-2.07a9.28,9.28,0,0,1-9.28-9.28V27a9.28,9.28,0,0,1,9.28-9.28Z"/></g><path class="c" d="M105.16,16.8h4.07a7.28,7.28,0,0,1,7.28,7.28V36.79a9.28,9.28,0,0,1-9.28,9.28h-2.07a9.28,9.28,0,0,1-9.28-9.28V26.08a9.28,9.28,0,0,1,9.28-9.28Z"/><path class="k" d="M93.79,17.17H95a0,0,0,0,1,0,0v7.21a0,0,0,0,1,0,0H92.7a0,0,0,0,1,0,0V18.26A1.09,1.09,0,0,1,93.79,17.17Z"/><polygon class="k" points="98.9 15.99 102.94 21.21 97.61 19.34 98.9 15.99"/><line class="q" x1="99.13" y1="28.54" x2="101.61" y2="28.54"/><line class="q" x1="111.26" y1="28.54" x2="113.74" y2="28.54"/><path class="e" d="M98.82,32.22a1.67,1.67,0,0,1,3.34,0"/><path class="e" d="M109.37,40.42a1.67,1.67,0,1,1-3.33,0"/><path class="e" d="M110.5,32.22a1.67,1.67,0,0,1,3.33,0"/><circle class="g" cx="100.13" cy="36.57" r="2.72"/><circle class="g" cx="112.96" cy="36.57" r="2.72"/><rect class="g" x="104.94" y="29.39" width="2.5" height="6.4" rx="1.25"/><path class="r" d="M107.86,34.72a1.67,1.67,0,1,1-3.33,0"/><rect class="e" x="93.02" y="85.93" width="25.89" height="36.76" rx="11.51"/><rect class="c" x="102.69" y="115.6" width="6.28" height="11.97" rx="2.9"/><g class="s"><path class="p" d="M102.95,91.77h5.57a7.28,7.28,0,0,1,7.28,7.28v12a9.28,9.28,0,0,1-9.28,9.28h-1.57a9.28,9.28,0,0,1-9.28-9.28v-12a7.28,7.28,0,0,1,7.28-7.28Z"/></g><path class="c" d="M103.55,90.88h3.57a9.28,9.28,0,0,1,9.28,9.28v10a9.28,9.28,0,0,1-9.28,9.28h-1.57a9.28,9.28,0,0,1-9.28-9.28v-12A7.28,7.28,0,0,1,103.55,90.88Z"/><rect class="g" x="104.79" y="102.51" width="2.5" height="6.4" rx="1.25"/><path class="r" d="M107.71,107.84a1.67,1.67,0,1,1-3.33,0"/><path class="t" d="M93,137.37h0A12.94,12.94,0,0,1,106,124.43h0a12.94,12.94,0,0,1,13,12.94h0"/><g class="u"><rect class="c" x="89.77" y="124.51" width="6.51" height="17.71"/><rect class="c" x="115.8" y="124.32" width="6.51" height="17.71"/><rect class="c" x="99.44" y="111.3" width="13.06" height="18" rx="5.34"/><rect class="j" x="111.18" y="124.43" width="1.68" height="6.63" rx="0.84"/><rect class="j" x="99.35" y="124.43" width="1.68" height="6.63" rx="0.84"/></g><rect class="c" x="91.39" y="103.16" width="29.29" height="4.88" rx="2.25"/><line class="l" x1="117.04" y1="106.42" x2="119.22" y2="106.42"/><line class="v" x1="104.12" y1="102.98" x2="107.96" y2="102.98"/><line class="w" x1="110.75" y1="97.65" x2="113.17" y2="97.65"/><line class="w" x1="98.6" y1="97.65" x2="101.02" y2="97.65"/><line class="x" x1="98.44" y1="109.67" x2="100.87" y2="109.67"/><line class="x" x1="111.75" y1="109.67" x2="114.17" y2="109.67"/><line class="l" x1="93.39" y1="106.42" x2="95.82" y2="106.42"/><path class="e" d="M109.29,113.93a1.63,1.63,0,1,1-3.25,0"/><circle class="a" cx="112.48" cy="103.98" r="4.81"/><circle class="a" cx="99.66" cy="103.98" r="4.81"/><path class="e" d="M99,104a1.63,1.63,0,1,1,3.25,0"/><path class="e" d="M110.39,104a1.63,1.63,0,1,1,3.25,0"/><path class="y" d="M113.66,104.71c0,.33-.72.59-1.62.59s-1.63-.26-1.63-.59"/><path class="y" d="M102.27,104.71c0,.33-.73.59-1.62.59S99,105,99,104.71"/><path class="j" d="M100.27,132.6h11.54a2.3,2.3,0,0,1,2.3,2.3v2.48a0,0,0,0,1,0,0H98a0,0,0,0,1,0,0V134.9A2.3,2.3,0,0,1,100.27,132.6Z"/><circle class="z" cx="100.19" cy="134.57" r="0.76"/><circle class="z" cx="112.03" cy="134.57" r="0.76"/><rect class="e" x="108.97" y="118.91" width="4.35" height="11.81" rx="2.18"/><path class="e" d="M109.16,131.9a2,2,0,1,1,4,0"/><path class="aa" d="M111.26,129.54a1.7,1.7,0,0,1,1.7-1.7"/><path class="aa" d="M111.26,126.35a1.7,1.7,0,0,1,1.7-1.7"/><path class="aa" d="M111.26,123.16a1.71,1.71,0,0,1,1.7-1.71"/><path class="aa" d="M111.18,127.83a1.7,1.7,0,0,0-1.7-1.7"/><path class="aa" d="M111.18,124.64a1.7,1.7,0,0,0-1.7-1.7"/><path class="aa" d="M111.18,121.45a1.7,1.7,0,0,0-1.7-1.7"/><circle class="ab" cx="111.97" cy="103.98" r="4.43"/><circle class="ab" cx="100.16" cy="103.98" r="4.43"/><path class="t" d="M30,137.37h0a13,13,0,0,1,13-13h0a13,13,0,0,1,13,13h0"/><path class="ac" d="M30,108.1V97.15A11.51,11.51,0,0,1,41.5,85.64h3A11.51,11.51,0,0,1,56,97.15V108.1"/><rect class="c" x="39.71" y="115.48" width="6.32" height="12.04" rx="2.9"/><g class="ad"><rect class="c" x="26.71" y="124.43" width="6.55" height="17.81"/><rect class="c" x="52.9" y="124.24" width="6.55" height="17.81"/><rect class="t" x="29.56" y="125.88" width="5.33" height="8.18"/><rect class="t" x="51.26" y="125.88" width="5.33" height="8.18"/></g><g class="ae"><path class="p" d="M39.93,91.51h5.69a7.28,7.28,0,0,1,7.28,7.28V111a9.28,9.28,0,0,1-9.28,9.28H41.93A9.28,9.28,0,0,1,32.65,111V98.79A7.28,7.28,0,0,1,39.93,91.51Z"/></g><rect class="c" x="28.35" y="102.97" width="29.46" height="4.91" rx="2.25"/><line class="l" x1="54.14" y1="106.24" x2="56.33" y2="106.24"/><path class="c" d="M42.54,90.61h3.69a7.28,7.28,0,0,1,7.28,7.28v12.16a9.28,9.28,0,0,1-9.28,9.28H42.54a9.28,9.28,0,0,1-9.28-9.28V99.89A9.28,9.28,0,0,1,42.54,90.61Z"/><path class="ac" d="M31.07,91h1.2a0,0,0,0,1,0,0v7.08a0,0,0,0,1,0,0H30a0,0,0,0,1,0,0v-6A1.09,1.09,0,0,1,31.07,91Z"/><polygon class="ac" points="36.07 89.81 40.03 94.94 34.81 93.11 36.07 89.81"/><line class="af" x1="41.14" y1="102.79" x2="45.01" y2="102.79"/><line class="w" x1="48.82" y1="98.42" x2="51.26" y2="98.42"/><line class="w" x1="36.53" y1="98.42" x2="38.97" y2="98.42"/><line class="x" x1="35.44" y1="109.51" x2="37.87" y2="109.51"/><line class="x" x1="48.82" y1="109.51" x2="51.26" y2="109.51"/><line class="l" x1="29.82" y1="106.24" x2="32.01" y2="106.24"/><path class="af" d="M38.68,107.55H34.44a2,2,0,0,1-1.93-1.47L31.64,103a2,2,0,0,1,1.93-2.56h6A2,2,0,0,1,41.48,103l-.86,3.08A2,2,0,0,1,38.68,107.55Z"/><path class="af" d="M51.71,107.55H47.47a2,2,0,0,1-1.93-1.47L44.67,103a2,2,0,0,1,1.93-2.56h6A2,2,0,0,1,54.51,103l-.86,3.08A2,2,0,0,1,51.71,107.55Z"/><path class="e" d="M36,103.79a1.64,1.64,0,1,1,3.27,0"/><path class="r" d="M44.71,105.42a1.64,1.64,0,1,1-3.27,0"/><path class="e" d="M47.45,103.79a1.64,1.64,0,1,1,3.27,0"/><line class="ag" x1="36.48" y1="94.51" x2="50.25" y2="94.51"/><line class="ag" x1="36.48" y1="96.7" x2="49.47" y2="96.7"/><g class="ah"><path class="ac" d="M48.2,112.93h0a1.87,1.87,0,0,0-1.94-1.78H40.5a1.87,1.87,0,0,0-1.94,1.78h0a1.86,1.86,0,0,1-1.94,1.77h-14a1.87,1.87,0,0,0-1.94,1.78v15.86a1.86,1.86,0,0,0,1.94,1.77H64.1A1.86,1.86,0,0,0,66,132.34V116.48a1.87,1.87,0,0,0-1.94-1.78h-14A1.86,1.86,0,0,1,48.2,112.93Z"/></g><line class="ai" x1="40.03" y1="114.2" x2="46.03" y2="114.2"/><path class="k" d="M169.39,122.44h-.93c-3.51,0-7.32-1.71-10.65-1.12-2.3-2.3-2.05-8.07-2.05-11.58v-12a12.7,12.7,0,0,1,12.7-12.7h.93a12.7,12.7,0,0,1,12.7,12.7v12c0,3.16,1,8.65-1.9,11.58C175.29,121.32,173.25,122.44,169.39,122.44Z"/><rect class="c" x="155.6" y="102.58" width="26.81" height="4.96" rx="2.25"/><line class="l" x1="179.07" y1="105.89" x2="181.07" y2="105.89"/><line class="l" x1="156.94" y1="105.89" x2="158.93" y2="105.89"/><path class="t" d="M155.76,137.37h0a13.16,13.16,0,0,1,13.16-13.16h0a13.17,13.17,0,0,1,13.17,13.16h0"/><rect class="c" x="165.59" y="115.23" width="6.39" height="12.17" rx="2.9"/><g class="aj"><rect class="ak" x="152.45" y="124.29" width="6.62" height="18.01"/><rect class="ak" x="178.93" y="124.1" width="6.62" height="18.01"/><rect class="al" x="159.07" y="125.75" width="1.65" height="8.27"/><rect class="al" x="177.28" y="125.75" width="1.65" height="8.27"/></g><g class="am"><rect class="p" x="158.46" y="91" width="20.47" height="29.04" rx="9.28"/></g><path class="c" d="M168.35,90.09h3.92a7.28,7.28,0,0,1,7.28,7.28v12.49a9.28,9.28,0,0,1-9.28,9.28h-1.92a9.28,9.28,0,0,1-9.28-9.28V99.37a9.28,9.28,0,0,1,9.28-9.28Z"/><line class="q" x1="173.71" y1="100.38" x2="176.17" y2="100.38"/><line class="q" x1="162.38" y1="100.38" x2="164.84" y2="100.38"/><line class="x" x1="161.28" y1="108.2" x2="163.74" y2="108.2"/><line class="x" x1="174.81" y1="108.2" x2="177.28" y2="108.2"/><path class="e" d="M161.84,104.51a1.66,1.66,0,0,1,3.31,0"/><path class="r" d="M170.66,105.06a1.66,1.66,0,1,1-3.31,0"/><path class="r" d="M173.21,112.28a3.9,3.9,0,1,1-7.8,0"/><path class="e" d="M173.42,104.51a1.66,1.66,0,0,1,3.31,0"/><path class="k" d="M155.84,97.94a12.7,12.7,0,0,1,12.7-12.7h.92a12.7,12.7,0,0,1,12.7,12.7"/><polygon class="c" points="171.98 98.09 171.98 93.13 173.43 98.09 171.98 98.09"/><path class="e" d="M169.6,61.11h-.9c-4.23,0-8.55,2.18-13.76-3,3.68-5.18,0-10.1,0-15.76l1.49-16.16A12.27,12.27,0,0,1,168.7,13.9h.9a12.27,12.27,0,0,1,12.27,12.27V48.84A12.26,12.26,0,0,1,169.6,61.11Z"/><rect class="c" x="156.38" y="30.95" width="26.29" height="4.56" rx="2.25"/><line class="l" x1="157.69" y1="33.99" x2="159.65" y2="33.99"/><line class="l" x1="178.94" y1="33.99" x2="180.9" y2="33.99"/><path class="t" d="M156.43,64.44h0a12.72,12.72,0,0,1,12.72-12.71h0a12.71,12.71,0,0,1,12.72,12.71h0"/><rect class="c" x="165.93" y="43.05" width="6.17" height="11.76" rx="2.9"/><g class="an"><rect class="c" x="153.24" y="51.8" width="6.4" height="17.4"/><rect class="c" x="178.82" y="51.62" width="6.4" height="17.4"/><rect class="c" x="162.46" y="47.65" width="13.67" height="13.67" rx="4.24"/><circle class="ab" cx="169.23" cy="51.73" r="5.9"/><circle class="ab" cx="169.23" cy="51.73" r="3.83"/></g><g class="ao"><rect class="p" x="159.04" y="19.64" width="19.78" height="28.06" rx="9.28"/></g><rect class="c" x="159.63" y="18.76" width="19.78" height="28.06" rx="9.28"/><line class="x" x1="161.76" y1="37.23" x2="164.14" y2="37.23"/><line class="x" x1="174.84" y1="37.23" x2="177.22" y2="37.23"/><path class="e" d="M162.31,34.83a1.6,1.6,0,1,1,3.2,0"/><path class="r" d="M170.82,36.43a1.6,1.6,0,1,1-3.19,0"/><path class="e" d="M173.5,34.83a1.6,1.6,0,1,1,3.2,0"/><path class="ap" d="M166.41,31.4a3.1,3.1,0,0,0-5.32,0"/><path class="ap" d="M177.5,31.4a3.1,3.1,0,0,0-5.32,0"/><line class="ai" x1="169.02" y1="41.69" x2="172.11" y2="41.69"/><path class="e" d="M165.93,49s0,8.36-1.79,9.46c-4.51,2.73-9.2-.39-9.2-.39"/><g class="aq"><path class="p" d="M164.61,20s5.32,5.17,14.8,5.17L176,18.51,165.93,17Z"/></g><path class="e" d="M164.61,19s5.32,5.17,14.8,5.17L176,17.51Z"/></svg>