<svg xmlns="http://www.w3.org/2000/svg" viewBox="0 0 538.7 424.87"><defs><style>.a{fill:#b0deda;}.b{fill:#977eba;}.c,.d{fill:#050606;}.d,.h{stroke:#e6e7e6;}.d,.e,.g,.h,.j{stroke-miterlimit:10;}.d,.e,.g{stroke-width:2px;}.e,.g,.h,.i,.j{fill:none;}.e,.i,.j{stroke:#b0deda;}.f{fill:#e6e7e6;}.g{stroke:#050606;}.i,.j{stroke-linecap:round;}.i{stroke-linejoin:round;stroke-width:3px;}.j{stroke-width:10px;}</style></defs><rect class="a" x="71.73" y="276.37" width="29.99" height="75.16"/><rect class="b" x="101.5" y="276.37" width="29.99" height="75.16"/><rect class="c" x="101.5" y="351.53" width="26.98" height="4.09"/><rect class="b" x="74.74" y="351.53" width="26.98" height="4.09"/><rect class="c" x="126.05" y="279.23" width="2.42" height="2.42"/><rect class="c" x="126.05" y="346.42" width="2.42" height="2.42"/><rect class="c" x="74.74" y="279.23" width="2.42" height="2.42"/><rect class="c" x="74.74" y="346.42" width="2.42" height="2.42"/><circle class="d" cx="101.5" cy="328.09" r="17.36"/><path class="e" d="M101.35,310.73a17.36,17.36,0,1,1,0,34.72"/><circle class="b" cx="101.5" cy="328.09" r="7.31"/><circle class="d" cx="101.5" cy="294.95" r="9.77"/><path class="e" d="M101.42,285.18a9.77,9.77,0,0,1,0,19.54"/><circle class="b" cx="101.5" cy="294.95" r="4.11"/><path class="b" d="M151.41,149.05v.69a6,6,0,0,1-.09,1,7,7,0,0,1-6.95,6H56.57A4.76,4.76,0,0,1,51.82,152v-26.5l5-7.26V82a2.28,2.28,0,0,1,2.28-2.28H95A2.28,2.28,0,0,1,97.3,82l4,23.86s17.92,24.94,32.09,25.82c.25,0,.51,0,.76,0a17.31,17.31,0,0,1,17.31,17.31Z"/><path class="a" d="M52.71,156.78H52.6a.78.78,0,0,1-.78-.79v-.11a.78.78,0,0,1,1.36-.52l.06,0A.79.79,0,0,1,52.71,156.78Z"/><path class="f" d="M51.81,144.77h99.59a0,0,0,0,1,0,0v7a5,5,0,0,1-5,5H56.81a5,5,0,0,1-5-5v-7a0,0,0,0,1,0,0Z"/><line class="g" x1="151.41" y1="144.77" x2="51.81" y2="144.77"/><line class="g" x1="66.02" y1="152.11" x2="51.81" y2="152.11"/><circle class="f" cx="69.03" cy="123.77" r="10.67"/><polygon class="a" points="73.45 124.93 74.22 130.19 69.24 128.35 64.47 130.71 64.68 125.4 60.96 121.6 66.08 120.16 68.54 115.45 71.5 119.87 76.74 120.75 73.45 124.93"/><circle class="h" cx="85.13" cy="139.98" r="2"/><circle class="h" cx="92.11" cy="139.98" r="2"/><polyline class="i" points="86.54 90.35 101.61 90.35 90.11 101.86 103.97 99.28 95.25 111.88 108.25 107.1 101.61 118.26 114.02 113.11 111.23 123.77 120.16 118.26 118.16 130.71 125.54 125.32 125.54 134.44"/><polygon class="a" points="270.27 57.58 270.27 136.07 249.7 136.07 258.62 57.58 270.27 57.58"/><polygon class="b" points="269.42 57.58 269.42 136.07 289.99 136.07 281.07 57.58 269.42 57.58"/><polygon class="b" points="270.27 57.58 270.27 80.35 256.04 80.35 258.63 57.58 270.27 57.58"/><polygon class="c" points="283.65 80.35 269.42 80.35 269.42 57.58 281.07 57.58 283.65 80.35"/><polygon class="c" points="269.42 136.07 289.99 136.07 278.08 159.07 293.82 178.95 269.42 178.95 269.42 136.07"/><polygon class="b" points="269.43 136.07 249.34 136.07 260.97 159.07 245.6 178.95 269.43 178.95 269.43 136.07"/><path class="c" d="M272.14,110.81a4.18,4.18,0,0,1-1.43,2.9,5.81,5.81,0,0,1-1.66,1.14,5.28,5.28,0,0,0-2.8,2.54l-2,4.27a5.39,5.39,0,0,0-.14,4.36,4.35,4.35,0,0,1,.33,2.08,4.43,4.43,0,0,1-8.84-.38,4.4,4.4,0,0,1,2.53-4,5.6,5.6,0,0,0,2.66-2.49l2.47-5a5.66,5.66,0,0,0,.26-4.24,4.64,4.64,0,0,1-.19-1.3,4.39,4.39,0,0,1,.89-2.66,5.2,5.2,0,0,0,.85-4.13l-.09-.45a5.45,5.45,0,0,0-2.3-3.4A6.26,6.26,0,1,1,272.5,95a6.22,6.22,0,0,1-2.25,4.8,4.7,4.7,0,0,0-1.57,4.12V104a5.12,5.12,0,0,0,1.88,3.34A4.4,4.4,0,0,1,272.14,110.81Z"/><circle class="c" cx="275.17" cy="127.72" r="4.43"/><path class="a" d="M401.53,67.54h36.28a0,0,0,0,1,0,0V180a0,0,0,0,1,0,0H407.7a6.17,6.17,0,0,1-6.17-6.17V67.54A0,0,0,0,1,401.53,67.54Z"/><path class="b" d="M437.81,67.54h36.28a0,0,0,0,1,0,0V173.82a6.17,6.17,0,0,1-6.17,6.17H437.81a0,0,0,0,1,0,0V67.54A0,0,0,0,1,437.81,67.54Z"/><path class="b" d="M408.82,76.63h29a0,0,0,0,1,0,0v51a0,0,0,0,1,0,0H415a6.17,6.17,0,0,1-6.17-6.17V76.63A0,0,0,0,1,408.82,76.63Z"/><path class="c" d="M437.81,76.63h29a0,0,0,0,1,0,0v44.82a6.17,6.17,0,0,1-6.17,6.17H437.81a0,0,0,0,1,0,0v-51A0,0,0,0,1,437.81,76.63Z"/><rect class="f" x="417.82" y="82.72" width="39.99" height="31.83"/><circle class="c" cx="462.4" cy="141.75" r="5.34"/><circle class="c" cx="450.71" cy="147.29" r="5.34"/><rect class="c" x="413.82" y="136.75" width="5.5" height="12.55"/><rect class="c" x="413.82" y="136.75" width="5.5" height="12.55" transform="translate(273.54 559.6) rotate(-90)"/><rect class="c" x="425.12" y="161.86" width="8.69" height="2.6"/><rect class="c" x="442.02" y="161.86" width="8.69" height="2.6"/><path class="a" d="M468.62,274.34l-6,16.45-1.49,4.09-4.65,12.8L437.83,359l-3-8.18-5.48-15.06L426.18,327l-5.45-15L413,290.8l-6-16.46a91.71,91.71,0,0,1,61.62,0Z"/><path class="b" d="M462.64,290.79l-1.49,4.09-4.65,12.8L437.83,359l-3-8.18-5.48-15.06L426.18,327l-5.45-15L413,290.8a72.9,72.9,0,0,1,49.64,0Z"/><circle class="a" cx="429.5" cy="299.64" r="8.32"/><path class="a" d="M461.15,294.88l-4.65,12.8a8.74,8.74,0,0,1-2.18.28,8.32,8.32,0,1,1,6.83-13.08Z"/><circle class="a" cx="442.52" cy="319.27" r="8.32"/><path class="a" d="M442.53,342.53a8.32,8.32,0,0,1-7.68,8.29l-5.48-15.06a8.23,8.23,0,0,1,4.83-1.55A8.32,8.32,0,0,1,442.53,342.53Z"/><path class="a" d="M429.53,320.34a8.32,8.32,0,0,1-3.35,6.67l-5.45-15,.49,0A8.31,8.31,0,0,1,429.53,320.34Z"/><polygon class="b" points="290.02 294.79 281.85 321.4 279.27 321.4 279.27 294.79 290.02 294.79"/><rect class="c" x="279.27" y="283.15" width="10.75" height="11.63"/><polygon class="b" points="281.85 270.51 290.02 283.15 279.27 283.15 279.27 270.51 281.85 270.51"/><rect class="f" x="260.46" y="294.79" width="18.81" height="26.61"/><rect class="b" x="260.46" y="283.15" width="18.81" height="11.63"/><rect class="f" x="260.46" y="270.52" width="18.81" height="12.64"/><polygon class="a" points="260.46 294.79 260.46 321.4 258.97 321.4 249.81 294.79 260.46 294.79"/><rect class="f" x="249.81" y="283.15" width="10.65" height="11.63"/><polygon class="a" points="260.46 270.51 260.46 283.15 249.81 283.15 258.97 270.51 260.46 270.51"/><rect class="a" x="245.88" y="321.4" width="47.07" height="7.16" rx="3.58"/><path class="j" d="M260,357.5a17.63,17.63,0,1,1,18.81,0"/></svg>