<svg xmlns="http://www.w3.org/2000/svg" xmlns:xlink="http://www.w3.org/1999/xlink" viewBox="0 0 416.09 386.79"><defs><style>.a,.ab,.p,.q,.r,.x{fill:none;}.b{isolation:isolate;}.c{fill:#b5c3e4;}.d{fill:#26336e;}.ad,.e,.g,.s,.y,.z{mix-blend-mode:multiply;}.e{fill:url(#a);}.f,.h,.n{mix-blend-mode:screen;}.f{fill:url(#b);}.g{fill:url(#c);}.h,.n{opacity:0.7;}.h{fill:url(#d);}.i,.l,.v{fill:#fab594;}.ac,.ae,.af,.ag,.j{mix-blend-mode:overlay;}.j{fill:url(#e);}.k{fill:#e99277;}.ab,.l,.p,.q,.r,.v{stroke:#26336e;}.l,.p,.q,.r{stroke-linecap:round;}.l,.p,.q{stroke-linejoin:round;}.m{clip-path:url(#f);}.n{fill:url(#g);}.o{clip-path:url(#h);}.p{stroke-width:4px;}.q{stroke-width:2px;}.ab,.r,.v,.x{stroke-miterlimit:10;}.s{opacity:0.5;fill:url(#i);}.t{clip-path:url(#j);}.u{fill:url(#k);}.w{clip-path:url(#l);}.x{stroke:#e99277;}.y{fill:url(#m);}.z{fill:url(#n);}.aa{clip-path:url(#o);}.ab{stroke-width:3px;}.ac{fill:url(#p);}.ad{fill:url(#q);}.ae{fill:url(#r);}.af{fill:url(#s);}.ag{fill:url(#t);}</style><linearGradient id="a" x1="240.48" y1="91.63" x2="331.57" y2="91.63" gradientUnits="userSpaceOnUse"><stop offset="0" stop-color="#231f20" stop-opacity="0.5"/><stop offset="0.09" stop-color="#231f20" stop-opacity="0.4"/><stop offset="0.51" stop-color="#231f20" stop-opacity="0.1"/><stop offset="1" stop-color="#231f20" stop-opacity="0"/></linearGradient><linearGradient id="b" x1="240.48" y1="91.63" x2="331.57" y2="91.63" gradientUnits="userSpaceOnUse"><stop offset="0" stop-color="#fab594" stop-opacity="0"/><stop offset="0.29" stop-color="#fab594" stop-opacity="0.01"/><stop offset="0.46" stop-color="#fab594" stop-opacity="0.04"/><stop offset="0.6" stop-color="#fab594" stop-opacity="0.1"/><stop offset="0.72" stop-color="#fab594" stop-opacity="0.18"/><stop offset="0.84" stop-color="#fab594" stop-opacity="0.29"/><stop offset="0.94" stop-color="#fab594" stop-opacity="0.41"/><stop offset="1" stop-color="#fab594" stop-opacity="0.5"/></linearGradient><linearGradient id="c" x1="77.32" y1="96.63" x2="186.36" y2="96.63" xlink:href="#a"/><linearGradient id="d" x1="77.28" y1="96.63" x2="186.32" y2="96.63" xlink:href="#b"/><linearGradient id="e" x1="71.51" y1="301.59" x2="194.33" y2="301.59" gradientUnits="userSpaceOnUse"><stop offset="0" stop-color="#fff" stop-opacity="0"/><stop offset="0.17" stop-color="#fff" stop-opacity="0.06"/><stop offset="0.49" stop-color="#fff" stop-opacity="0.21"/><stop offset="0.93" stop-color="#fff" stop-opacity="0.46"/><stop offset="1" stop-color="#fff" stop-opacity="0.5"/></linearGradient><clipPath id="f"><path class="a" d="M340.54,323.81c-7.89-13.74-23.52-23.22-39.36-23.22h0a2.39,2.39,0,0,1-2.4-2.4V263.55H273.65v33.53a3.52,3.52,0,0,1-3.52,3.51h0c-16.78,0-33.11,10.49-40.59,25.51l-4.74,13.53H347.62Z"/></clipPath><linearGradient id="g" x1="225.22" y1="322.69" x2="347.62" y2="322.69" xlink:href="#b"/><clipPath id="h"><path class="a" d="M292.16,281.9l-.39.12a18.64,18.64,0,0,1-11.09-.07h0A25.43,25.43,0,0,1,263,259.34l-1.19-18.52a24.69,24.69,0,0,1,24.64-26.27h0a24.69,24.69,0,0,1,24.66,25.87l-.89,18.37A25.4,25.4,0,0,1,292.16,281.9Z"/></clipPath><linearGradient id="i" x1="193.93" y1="124.7" x2="71.11" y2="124.7" gradientUnits="userSpaceOnUse"><stop offset="0.35" stop-color="#fff" stop-opacity="0"/><stop offset="1" stop-color="#26336e" stop-opacity="0.4"/></linearGradient><clipPath id="j"><path class="a" d="M186.69,146.92c-7.89-13.74-23.52-23.22-39.36-23.22h0a2.39,2.39,0,0,1-2.4-2.4V86.66H119.79v33.53a3.51,3.51,0,0,1-3.51,3.51h0c-16.78,0-33.11,10.5-40.59,25.52L71,162.74H193.77Z"/></clipPath><linearGradient id="k" x1="150.65" y1="77.8" x2="113.23" y2="77.8" xlink:href="#i"/><clipPath id="l"><path class="a" d="M340.21,146.58c-7.88-13.75-23.52-23.22-39.36-23.22h0a2.4,2.4,0,0,1-2.4-2.4V86.32H273.32v33.52a3.52,3.52,0,0,1-3.52,3.52h0c-16.78,0-33.11,10.49-40.59,25.51l-4.74,13.53H347.29Z"/></clipPath><linearGradient id="m" x1="208.51" y1="153.49" x2="363.67" y2="153.49" gradientUnits="userSpaceOnUse"><stop offset="0" stop-color="#26336e" stop-opacity="0.5"/><stop offset="0.05" stop-color="#26336e" stop-opacity="0.44"/><stop offset="0.23" stop-color="#26336e" stop-opacity="0.24"/><stop offset="0.42" stop-color="#26336e" stop-opacity="0.11"/><stop offset="0.66" stop-color="#26336e" stop-opacity="0.02"/><stop offset="1" stop-color="#26336e" stop-opacity="0"/></linearGradient><linearGradient id="n" x1="75.67" y1="248.69" x2="145.02" y2="248.69" gradientUnits="userSpaceOnUse"><stop offset="0.2" stop-color="#26336e" stop-opacity="0.5"/><stop offset="0.24" stop-color="#26336e" stop-opacity="0.44"/><stop offset="0.38" stop-color="#26336e" stop-opacity="0.24"/><stop offset="0.54" stop-color="#26336e" stop-opacity="0.11"/><stop offset="0.73" stop-color="#26336e" stop-opacity="0.02"/><stop offset="1" stop-color="#26336e" stop-opacity="0"/></linearGradient><clipPath id="o"><path class="a" d="M194.33,339.63l-7.08-15.82c-7.89-13.74-23.52-23.22-39.37-23.22h0a2.4,2.4,0,0,1-2.4-2.4V263.55H120.35v33.53a3.51,3.51,0,0,1-3.51,3.51h0c-16.78,0-33.11,10.49-40.59,25.51l-4.74,13.53"/></clipPath><linearGradient id="p" x1="108.44" y1="248.69" x2="157.82" y2="248.69" xlink:href="#e"/><linearGradient id="q" x1="93.21" y1="228.36" x2="145.19" y2="228.36" xlink:href="#m"/><linearGradient id="r" x1="108.15" y1="77.76" x2="157.12" y2="77.76" xlink:href="#e"/><linearGradient id="s" x1="261.76" y1="77.26" x2="310.73" y2="77.26" xlink:href="#e"/><linearGradient id="t" x1="261.73" y1="247" x2="311.11" y2="247" xlink:href="#e"/></defs><g class="b"><rect class="c" width="416.09" height="386.79"/><path class="d" d="M316.78,108.24c0-11.93-1.24-39.78-3.48-49.94,0-13.19-12.07-24-27.12-24h0c-14.52,0-26.23,10.05-27.08,22.54-2.46,8.64-3.83,38.85-3.83,51.41S240.48,149,240.48,149s13.75-2.87,23.72-8.09C278.79,133.26,274.8,99,274.8,99l-.14-1.18a29.58,29.58,0,0,0,5.21,2h0a23.09,23.09,0,0,0,12.18.07l.44-.12A28.78,28.78,0,0,0,297.36,98l-.12,1s-6.17,34.23,10.61,41.86c10.24,4.66,23.72,8.09,23.72,8.09S316.78,120.8,316.78,108.24Z"/><path class="e" d="M316.78,108.24c0-11.93-1.24-39.78-3.48-49.94,0-13.19-12.07-24-27.12-24h0c-14.52,0-26.23,10.05-27.08,22.54-2.46,8.64-3.83,38.85-3.83,51.41S240.48,149,240.48,149s14-2.51,23.72-8.09S274.8,99,274.8,99l-.14-1.18a29.58,29.58,0,0,0,5.21,2h0a23.09,23.09,0,0,0,12.18.07l.44-.12A28.78,28.78,0,0,0,297.36,98l-.12,1s.84,36.28,10.61,41.86S331.57,149,331.57,149,316.78,120.8,316.78,108.24Z"/><path class="f" d="M316.78,108.24c0-11.93-1.24-39.78-3.48-49.94,0-13.19-12.07-24-27.12-24h0c-14.52,0-26.23,10.05-27.08,22.54-2.46,8.64-3.83,38.85-3.83,51.41S240.48,149,240.48,149s14-2.51,23.72-8.09S274.8,99,274.8,99l-.14-1.18a29.58,29.58,0,0,0,5.21,2h0a23.09,23.09,0,0,0,12.18.07l.44-.12A28.78,28.78,0,0,0,297.36,98l-.12,1s.84,36.28,10.61,41.86S331.57,149,331.57,149,316.78,120.8,316.78,108.24Z"/><path class="d" d="M178.46,121.87a3.88,3.88,0,0,1-1.43-2.36,3.68,3.68,0,0,1-.08-.82v-.15a18,18,0,0,0-1.88-5.79c-2.33-4.37-5.74-6.19-6.31-12-.29-3-.42-5.67-.47-8a12.19,12.19,0,0,0,.68-15.8,9,9,0,0,1-2-7c.82-5-5.15-13.62-8.67-19.2l0,0c-3.59-9.49-13.71-16.41-25.73-16.41-10.72,0-19.91,5.49-24.33,13.39l0,0c-4,6.48-9.64,11.1-8,16.69a3.71,3.71,0,0,1-.91,3.66,20.78,20.78,0,0,0-5.69,18.25,20.53,20.53,0,0,1-2.24,13.86,20.69,20.69,0,0,0-2.76,10.34c0,.73,0,1.44.09,2.18A3.85,3.85,0,0,1,87,116.23a20.88,20.88,0,0,0-9.62,16c-1.2,16.35,16.51,29.07,33.52,18.54a12.1,12.1,0,0,0,3.59-3.43,23.12,23.12,0,0,0,4.35-15.75,3.71,3.71,0,0,1,1.69-3.53,21,21,0,0,0,2.47-1.82,3.76,3.76,0,0,1,5.72,1.09,20.76,20.76,0,0,0,16.07,10.82v0c0,15.68,17.35,27.3,33.9,16.72a12.1,12.1,0,0,0,3.61-3.62C189.59,139.85,186.32,128.09,178.46,121.87Z"/><path class="g" d="M178.46,121.87a3.88,3.88,0,0,1-1.43-2.36,3.68,3.68,0,0,1-.08-.82v-.15a18,18,0,0,0-1.88-5.79c-2.33-4.37-5.74-6.19-6.31-12-.29-3-.42-5.67-.47-8a12.19,12.19,0,0,0,.68-15.8,9,9,0,0,1-2-7c.82-5-5.15-13.62-8.67-19.2l0,0c-3.59-9.49-13.71-16.41-25.73-16.41-10.72,0-19.91,5.49-24.33,13.39l0,0c-4,6.48-9.64,11.1-8,16.69a3.71,3.71,0,0,1-.91,3.66,20.78,20.78,0,0,0-5.69,18.25,20.53,20.53,0,0,1-2.24,13.86,20.69,20.69,0,0,0-2.76,10.34c0,.73,0,1.44.09,2.18A3.85,3.85,0,0,1,87,116.23a20.88,20.88,0,0,0-9.62,16c-1.2,16.35,16.51,29.07,33.52,18.54a12.1,12.1,0,0,0,3.59-3.43,23.12,23.12,0,0,0,4.35-15.75,3.71,3.71,0,0,1,1.69-3.53,21,21,0,0,0,2.47-1.82,3.76,3.76,0,0,1,5.72,1.09,20.76,20.76,0,0,0,16.07,10.82v0c0,15.68,17.35,27.3,33.9,16.72a12.1,12.1,0,0,0,3.61-3.62C189.59,139.85,186.32,128.09,178.46,121.87Z"/><path class="h" d="M178.42,121.87a3.88,3.88,0,0,1-1.43-2.36,3.68,3.68,0,0,1-.08-.82v-.15a18,18,0,0,0-1.88-5.79c-2.33-4.37-5.74-6.19-6.31-12-.29-3-.42-5.67-.47-8a12.19,12.19,0,0,0,.68-15.8,9,9,0,0,1-2-7c.82-5-5.15-13.62-8.67-19.2l0,0c-3.58-9.49-13.71-16.41-25.73-16.41-10.72,0-19.91,5.49-24.33,13.39l0,0c-4,6.48-9.64,11.1-8,16.69a3.71,3.71,0,0,1-.91,3.66A20.78,20.78,0,0,0,93.6,86.31a20.53,20.53,0,0,1-2.24,13.86,20.69,20.69,0,0,0-2.76,10.34c0,.73.05,1.44.09,2.18A3.85,3.85,0,0,1,87,116.23a20.88,20.88,0,0,0-9.62,16c-1.2,16.35,16.51,29.07,33.52,18.54a12.1,12.1,0,0,0,3.59-3.43,23.12,23.12,0,0,0,4.35-15.75,3.71,3.71,0,0,1,1.69-3.53,21,21,0,0,0,2.47-1.82,3.76,3.76,0,0,1,5.72,1.09,20.76,20.76,0,0,0,16.07,10.82v0c0,15.68,17.35,27.3,33.9,16.72a12.1,12.1,0,0,0,3.61-3.62C189.55,139.85,186.28,128.09,178.42,121.87Z"/><path class="i" d="M194.33,339.63l-7.08-15.82c-7.89-13.74-23.52-23.22-39.37-23.22h0a2.4,2.4,0,0,1-2.4-2.4V263.55H120.35v33.53a3.51,3.51,0,0,1-3.51,3.51h0c-16.78,0-33.11,10.49-40.59,25.51l-4.74,13.53"/><path class="j" d="M194.33,339.63l-7.08-15.82c-7.89-13.74-23.52-23.22-39.37-23.22h0a2.4,2.4,0,0,1-2.4-2.4V263.55H120.35v33.53a3.51,3.51,0,0,1-3.51,3.51h0c-16.78,0-33.11,10.49-40.59,25.51l-4.74,13.53"/><path class="k" d="M154.9,220.87a28.34,28.34,0,0,0-21.77-9.7h0a28.35,28.35,0,0,0-21.75,9.67l-.34,0c-17.76,17.76-15.25,53.37-2.92,65.34l15.28-1.58,1.26-8.59c.7.26,1.42.49,2.16.7a23.2,23.2,0,0,0,12.18.07l.44-.12c.63-.17,1.25-.36,1.85-.57l1.25,8.51,15.28,1.58C170.15,274.24,172.66,238.63,154.9,220.87Z"/><path class="i" d="M347.89,162.4l-7.15-15.82c-8-13.75-23.75-23.22-39.75-23.22h0a2.41,2.41,0,0,1-2.42-2.4V86.32H273.19v33.52a3.53,3.53,0,0,1-3.55,3.52h0c-16.94,0-33.43,10.49-41,25.51l-4.78,13.53"/><path class="d" d="M292.73,276.69l-.44.12a23.2,23.2,0,0,1-12.18-.07h0c-11-3.08-18.71-11.81-19.45-22l-1.31-18c-1-13.84,11.4-25.56,27.07-25.56h0c15.5,0,27.84,11.47,27.1,25.17l-1,17.87C312,264.66,304,273.66,292.73,276.69Z"/><path class="i" d="M340.54,323.81c-7.89-13.74-23.52-23.22-39.36-23.22h0a2.39,2.39,0,0,1-2.4-2.4V263.55H273.65v33.53a3.52,3.52,0,0,1-3.52,3.51h0c-16.78,0-33.11,10.49-40.59,25.51l-4.74,13.53H347.62Z"/><path class="i" d="M263.16,263.39h0c2.32-.73,3.73-3.68,3.15-6.59l-1.17-5.9c-.62-3.1-3.12-5-5.59-4.21h0c-2.68.83-4.17,4.41-3.2,7.65l1.71,5.69C258.83,262.61,261,264.06,263.16,263.39Z"/><path class="l" d="M258.84,252.47s3.64-3.72,5.08,7.26"/><path class="l" d="M261.25,259.73c-1.93-1.12-1.55-6.57.64-6.51"/><path class="i" d="M310.35,263.39h0c-2.14-.73-3.45-3.68-2.91-6.59l1.08-5.9c.57-3.1,2.88-5,5.16-4.21h0c2.47.83,3.84,4.41,2.95,7.65L315.05,260C314.34,262.61,312.31,264.06,310.35,263.39Z"/><path class="l" d="M314.33,252.47s-3.35-3.72-4.69,7.26"/><path class="l" d="M312.11,259.73c1.78-1.12,1.43-6.57-.59-6.51"/><g class="m"><path class="d" d="M313.81,284.91a27.69,27.69,0,0,1-54.78,0H225.22v75.56h122.4V284.91Z"/><path class="k" d="M296.16,287.9l-.39.12a18.64,18.64,0,0,1-11.09-.07h0A25.43,25.43,0,0,1,267,265.34l-1.19-18.52a24.69,24.69,0,0,1,24.64-26.27h0a24.69,24.69,0,0,1,24.66,25.87l-.89,18.37A25.4,25.4,0,0,1,296.16,287.9Z"/><path class="n" d="M313.81,284.91a27.69,27.69,0,0,1-54.78,0H225.22v75.56h122.4V284.91Z"/></g><path class="l" d="M292.16,281.9l-.39.12a18.64,18.64,0,0,1-11.09-.07h0A25.43,25.43,0,0,1,263,259.34l-1.19-18.52a24.69,24.69,0,0,1,24.64-26.27h0a24.69,24.69,0,0,1,24.66,25.87l-.89,18.37A25.4,25.4,0,0,1,292.16,281.9Z"/><g class="o"><path class="p" d="M293.16,279.82l5.19-3-.27-7.62-11.87-1.52-12.13,1.52v7.76l5.54,3.06A13.49,13.49,0,0,0,293.16,279.82Z"/><line class="q" x1="283.91" y1="274.98" x2="288.51" y2="274.98"/><path class="d" d="M314.22,238.75v-7.82a2.23,2.23,0,0,1,2.22-2.23h6.47a2.22,2.22,0,0,0,2.23-2.22V211.77a2.23,2.23,0,0,0-2.23-2.23h-6.65a2.23,2.23,0,0,1-2.23-2.23v-.75a2.22,2.22,0,0,0-2.22-2.23h-1.26a2.23,2.23,0,0,0-2.23,2.23v.75a2.23,2.23,0,0,1-2.23,2.23H266.81a2.22,2.22,0,0,1-2.22-2.23v-.75a2.23,2.23,0,0,0-2.23-2.23H261.1a2.23,2.23,0,0,0-2.23,2.23v.75a2.22,2.22,0,0,1-2.22,2.23h-7.8a2.22,2.22,0,0,0-2.22,2.23v14.71a2.21,2.21,0,0,0,2.22,2.22h7.8a2.22,2.22,0,0,1,2.22,2.23v33.36a2.25,2.25,0,0,1-.66,1.59l-.21.21.87.89v.42h.42l10.76,11a2.22,2.22,0,0,0,3.14,0l1.08-1.06a2.23,2.23,0,0,0,0-3.15l-6-6.09a13,13,0,0,1-3.74-9.15V241a2.22,2.22,0,0,1,2.22-2.23h.42a2.23,2.23,0,0,0,2.23-2.23v-5.59a2.22,2.22,0,0,1,2.22-2.23h30a2.23,2.23,0,0,1,2.23,2.23v5.59a2.22,2.22,0,0,0,2.22,2.23h0a2.23,2.23,0,0,1,2.23,2.23V258.8a13,13,0,0,1-3.74,9.15l-6.12,6.24a2.23,2.23,0,0,0,0,3.15l1.08,1.06a2.24,2.24,0,0,0,3.15,0l10.76-11H314v-.56l.74-.75-.74-.72V238.75Z"/></g><path class="r" d="M275.93,270.56c2.2,1.2,5.83,2,9.95,2s7.75-.78,9.95-2"/><path class="q" d="M280.05,248.6a15.83,15.83,0,0,0-12.09,0"/><path class="q" d="M304.68,248.6a15.83,15.83,0,0,0-12.09,0"/><circle class="d" cx="274.01" cy="254.3" r="2.81"/><circle class="d" cx="298.64" cy="254.3" r="2.81"/><line class="r" x1="279.05" y1="256.94" x2="273.78" y2="260.3"/><line class="r" x1="294.59" y1="257.67" x2="300.64" y2="260.3"/><path class="d" d="M177,118.55a18,18,0,0,0-1.88-5.79A9.8,9.8,0,0,1,177,118.55Z"/><path class="i" d="M186.69,146.92c-7.89-13.74-23.52-23.22-39.36-23.22h0a2.39,2.39,0,0,1-2.4-2.4V86.66H119.79v33.53a3.51,3.51,0,0,1-3.51,3.51h0c-16.78,0-33.11,10.5-40.59,25.52L71,162.74H193.77Z"/><path class="s" d="M186.69,146.92c-7.89-13.74-23.52-23.22-39.36-23.22h0a2.39,2.39,0,0,1-2.4-2.4V86.66H119.79v33.53a3.51,3.51,0,0,1-3.51,3.51h0c-16.78,0-33.11,10.5-40.59,25.52L71,162.74H193.77Z"/><g class="t"><path class="d" d="M167.29,122.69c-2.48,16.95-8.11,30-34.72,30-24.75,0-32.24-13-34.72-30H55v95.78H210.15V122.69Z"/><circle class="r" cx="132.57" cy="103.65" r="24.06"/><circle class="r" cx="132.57" cy="108.01" r="24.06"/><circle class="r" cx="132.57" cy="112.38" r="24.06"/><path class="k" d="M142.31,111l-.4.12a18.77,18.77,0,0,1-11.08-.07h0a25.46,25.46,0,0,1-17.71-22.61l-1.19-18.53a24.69,24.69,0,0,1,24.64-26.27h0a24.69,24.69,0,0,1,24.66,25.88l-.89,18.37A25.41,25.41,0,0,1,142.31,111Z"/><polyline class="r" points="117.13 120.19 131.68 162.74 147.59 121.3"/><path class="u" d="M142.31,111l-.4.12a18.77,18.77,0,0,1-11.08-.07h0a25.46,25.46,0,0,1-17.71-22.61l-1.19-18.53a24.69,24.69,0,0,1,24.64-26.27h0a24.69,24.69,0,0,1,24.66,25.88l-.89,18.37A25.41,25.41,0,0,1,142.31,111Z"/></g><path class="i" d="M340.3,146.92c-7.89-13.74-23.52-23.22-39.37-23.22h0a2.4,2.4,0,0,1-2.4-2.4V86.66H273.4v33.53a3.51,3.51,0,0,1-3.51,3.51h0c-16.78,0-33.12,10.5-40.59,25.52l-4.74,13.52H347.37Z"/><path class="i" d="M262.08,86.5h0a5.45,5.45,0,0,0,4-6.59L264.56,74a5.77,5.77,0,0,0-7-4.21h0a5.79,5.79,0,0,0-4,7.65l2.15,5.69A5.42,5.42,0,0,0,262.08,86.5Z"/><path class="v" d="M256.67,75.59s4.56-3.72,6.37,7.25"/><path class="v" d="M259.68,82.84c-2.42-1.11-1.94-6.57.81-6.5"/><path class="i" d="M310.91,86.5h0a5.43,5.43,0,0,1-4-6.59l1.47-5.9a5.79,5.79,0,0,1,7-4.21h0a5.78,5.78,0,0,1,4,7.65l-2.14,5.69A5.43,5.43,0,0,1,310.91,86.5Z"/><path class="v" d="M316.32,75.59s-4.56-3.72-6.37,7.25"/><path class="v" d="M313.31,82.84c2.42-1.11,1.94-6.57-.81-6.5"/><g class="w"><path class="k" d="M320.81,105.6a35.09,35.09,0,0,1-69.44,0H208.51v95.78H363.67V105.6Z"/><circle class="x" cx="286.09" cy="102.6" r="27.96"/><path class="k" d="M295.84,110.67l-.4.12a18.72,18.72,0,0,1-11.09-.07h0a25.41,25.41,0,0,1-17.7-22.61l-1.2-18.52a24.7,24.7,0,0,1,24.64-26.28h0a24.69,24.69,0,0,1,24.66,25.88l-.88,18.37A25.43,25.43,0,0,1,295.84,110.67Z"/><path class="y" d="M320.81,105.6a35.09,35.09,0,0,1-69.44,0H208.51v95.78H363.67V105.6Z"/></g><path class="i" d="M310.24,64.8a48.77,48.77,0,0,1-35.45-15.22,30.27,30.27,0,0,1-13,16.75l1,15.13a25.45,25.45,0,0,0,17.7,22.61,18.8,18.8,0,0,0,11.09.07l.4-.12a25.44,25.44,0,0,0,18-23.11l.78-16.12Z"/><polyline class="r" points="279.81 71.71 272.76 69.31 267.72 71.71"/><polyline class="r" points="304.44 71.71 300.39 69.31 292.35 71.71"/><circle class="d" cx="273.76" cy="77.41" r="2.81"/><circle class="d" cx="269.36" cy="83.67" r="0.83"/><circle class="d" cx="272.94" cy="83.67" r="0.83"/><circle class="d" cx="270.96" cy="86.66" r="0.83"/><circle class="d" cx="274.8" cy="86.66" r="0.83"/><circle class="d" cx="276.57" cy="83.67" r="0.83"/><circle class="d" cx="294.79" cy="83.67" r="0.83"/><circle class="d" cx="298.37" cy="83.67" r="0.83"/><circle class="d" cx="296.39" cy="86.66" r="0.83"/><circle class="d" cx="300.23" cy="86.66" r="0.83"/><circle class="d" cx="302" cy="83.67" r="0.83"/><circle class="d" cx="298.39" cy="77.41" r="2.81"/><path class="r" d="M285.41,79.59V82.7a3.06,3.06,0,0,0,3.07,3.07h0"/><path class="r" d="M297.54,91.23c-2.51,3.94-3.72,8.44-11.36,8.44-8.4,0-8.85-4.5-11.37-8.44Z"/><path class="z" d="M154.9,220.87a28.34,28.34,0,0,0-21.77-9.7h0a28.35,28.35,0,0,0-21.75,9.67l-.34,0c-17.76,17.76-15.25,53.37-2.92,65.34l15.28-1.58,1.26-8.59c.7.26,1.42.49,2.16.7a23.2,23.2,0,0,0,12.18.07l.44-.12c.63-.17,1.25-.36,1.85-.57l1.25,8.51,15.28,1.58C170.15,274.24,172.66,238.63,154.9,220.87Z"/><path class="i" d="M109.77,262.47h0a4.84,4.84,0,0,0,3.52-5.87L112,251.35a5.16,5.16,0,0,0-6.25-3.75h0a5.14,5.14,0,0,0-3.57,6.81l1.91,5.07A4.83,4.83,0,0,0,109.77,262.47Z"/><path class="l" d="M105,252.75s4.06-3.31,5.67,6.47"/><path class="l" d="M107.63,259.22c-2.16-1-1.73-5.85.72-5.8"/><path class="i" d="M156.63,262.47h0a4.84,4.84,0,0,1-3.52-5.87l1.31-5.25a5.16,5.16,0,0,1,6.25-3.75h0a5.14,5.14,0,0,1,3.57,6.81l-1.91,5.07A4.83,4.83,0,0,1,156.63,262.47Z"/><path class="l" d="M161.45,252.75s-4.06-3.31-5.67,6.47"/><path class="l" d="M158.77,259.22c2.15-1,1.72-5.85-.72-5.8"/><g class="aa"><path class="k" d="M142.87,287.9l-.4.12a18.61,18.61,0,0,1-11.08-.07h0a25.43,25.43,0,0,1-17.71-22.61l-1.19-18.52a24.68,24.68,0,0,1,24.64-26.27h0a24.69,24.69,0,0,1,24.66,25.87l-.89,18.37A25.43,25.43,0,0,1,142.87,287.9Z"/><path class="d" d="M108.35,317.5l20.91,24.39a2.79,2.79,0,0,1-2.12,4.61H95.73a2.8,2.8,0,0,1-2.56-3.9l10.5-24.39A2.79,2.79,0,0,1,108.35,317.5Z"/><line class="ab" x1="106.05" y1="325.28" x2="106.05" y2="299.98"/><path class="d" d="M156.9,317.5,136,341.89a2.79,2.79,0,0,0,2.11,4.61h31.41a2.8,2.8,0,0,0,2.57-3.9l-10.5-24.39A2.79,2.79,0,0,0,156.9,317.5Z"/><line class="ab" x1="159.2" y1="325.28" x2="159.2" y2="299.98"/></g><path class="i" d="M138.87,281.9l-.4.12a18.61,18.61,0,0,1-11.08-.07h0a25.43,25.43,0,0,1-17.71-22.61l-1.19-18.52a24.68,24.68,0,0,1,24.64-26.27h0a24.69,24.69,0,0,1,24.66,25.87l-.89,18.37A25.43,25.43,0,0,1,138.87,281.9Z"/><rect class="d" x="140.3" y="246.2" width="9.66" height="2.49" rx="1.24"/><rect class="d" x="115.66" y="246.2" width="9.66" height="2.49" rx="1.24"/><circle class="k" cx="120.16" cy="266.06" r="6.16"/><circle class="k" cx="147.15" cy="266.06" r="6.16"/><path class="ac" d="M138.87,281.9l-.4.12a18.61,18.61,0,0,1-11.08-.07h0a25.43,25.43,0,0,1-17.71-22.61l-1.19-18.52a24.68,24.68,0,0,1,24.64-26.27h0a24.69,24.69,0,0,1,24.66,25.87l-.89,18.37A25.43,25.43,0,0,1,138.87,281.9Z"/><path class="k" d="M133.13,212.74h0a26,26,0,0,0-25.94,27.66l.23,3.57a31.92,31.92,0,0,0,13.72-17.62,51.36,51.36,0,0,0,37.32,16H159l.11-2.37A26,26,0,0,0,133.13,212.74Z"/><path class="r" d="M128.43,270.41a7.52,7.52,0,0,0,10.32,0"/><circle class="d" cx="120.72" cy="254.3" r="2.81"/><circle class="d" cx="145.35" cy="254.3" r="2.81"/><path class="r" d="M132.36,256.48v3.11a3.06,3.06,0,0,0,3.07,3.07h0"/><path class="r" d="M286.21,252.22v9.39a2,2,0,0,0,2.53,2l2.36-.58"/><line class="r" x1="298.65" y1="77.68" x2="302.46" y2="76.88"/><line class="r" x1="273.69" y1="77.88" x2="269.88" y2="77.08"/><path class="d" d="M177,119.52a3.68,3.68,0,0,1-.08-.82v-.15A5.92,5.92,0,0,1,177,119.52Z"/><path class="ad" d="M133.13,212.74h0a26,26,0,0,0-25.94,27.66l.23,3.57a31.92,31.92,0,0,0,13.72-17.62,51.36,51.36,0,0,0,37.32,16H159l.11-2.37A26,26,0,0,0,133.13,212.74Z"/><path class="i" d="M157.12,64.79h-.49a48.8,48.8,0,0,1-35.45-15.22,30.31,30.31,0,0,1-13,16.75l1,16.13a25.46,25.46,0,0,0,17.71,22.61,18.77,18.77,0,0,0,11.08.07l.4-.12a25.41,25.41,0,0,0,18-23.11"/><path class="ae" d="M157.12,64.79h-.49a48.8,48.8,0,0,1-35.45-15.22,30.31,30.31,0,0,1-13,16.75l1,16.13a25.46,25.46,0,0,0,17.71,22.61,18.77,18.77,0,0,0,11.08.07l.4-.12a25.41,25.41,0,0,0,18-23.11"/><path class="r" d="M127.32,93.36a12,12,0,0,0,11.42,0"/><path class="d" d="M126.2,71.71a8.81,8.81,0,0,0-12.09,0"/><path class="d" d="M150.83,71.71a8.81,8.81,0,0,0-12.09,0"/><circle class="d" cx="120.16" cy="77.41" r="2.81"/><circle class="d" cx="144.79" cy="77.41" r="2.81"/><path class="r" d="M131.8,79.59V82.7a3.07,3.07,0,0,0,3.07,3.07h0"/><line class="r" x1="125.2" y1="80.05" x2="119.93" y2="83.42"/><line class="r" x1="140.74" y1="80.78" x2="146.79" y2="83.42"/><polyline class="r" points="117.08 74.98 119.64 76.94 115.68 76.82"/><polyline class="r" points="148.17 74.98 145.62 76.94 149.57 76.82"/><path class="af" d="M310.24,64.8a48.77,48.77,0,0,1-35.45-15.22,30.27,30.27,0,0,1-13,16.75l1,15.13a25.45,25.45,0,0,0,17.7,22.61,18.8,18.8,0,0,0,11.09.07l.4-.12a25.44,25.44,0,0,0,18-23.11l.78-16.12Z"/><path class="ag" d="M292.16,281.9l-.39.12a18.64,18.64,0,0,1-11.09-.07h0A25.43,25.43,0,0,1,263,259.34l-1.19-18.52c-.91-14.23,10.38-29.65,24.64-29.65h0c14.1,0,25.34,15.17,24.66,29.25l-.89,18.37A25.4,25.4,0,0,1,292.16,281.9Z"/></g></svg>