<?xml version="1.0" encoding="utf-8"?>
<!-- Generator: Adobe Illustrator 24.1.0, SVG Export Plug-In . SVG Version: 6.00 Build 0)  -->
<svg version="1.1" id="Layer_1" xmlns="http://www.w3.org/2000/svg" xmlns:xlink="http://www.w3.org/1999/xlink" x="0px" y="0px"
	 viewBox="0 0 1969.1 720" style="enable-background:new 0 0 1969.1 720;" xml:space="preserve">
<style type="text/css">
	.st0{fill:#57667C;}
	.st1{clip-path:url(#SVGID_2_);fill:#3CBCA2;}
	.st2{clip-path:url(#SVGID_4_);fill:#F4DFC0;}
	.st3{fill:#FFFFFD;}
	.st4{fill:#FFFFFF;}
	.st5{fill:none;stroke:#FFFFFF;stroke-width:20;stroke-miterlimit:10;}
	.st6{fill:#F4DFC0;}
	.st7{fill:none;stroke:#FFFFFF;stroke-width:8;stroke-miterlimit:10;}
	.st8{fill:#3CBCA2;}
	.st9{fill:none;stroke:#F4DFC0;stroke-width:5;stroke-miterlimit:10;}
	.st10{fill:#9FD8F6;stroke:#F4DFC0;stroke-width:5;stroke-miterlimit:10;}
	.st11{fill:none;stroke:#57667C;stroke-width:4;stroke-miterlimit:10;}
	.st12{fill:#2E2C37;}
	.st13{fill:#57667C;stroke:#57667C;stroke-miterlimit:10;}
</style>
<circle class="st0" cx="984.7" cy="359" r="216"/>
<g>
	<defs>
		<circle id="SVGID_1_" cx="984.7" cy="359" r="216"/>
	</defs>
	<clipPath id="SVGID_2_">
		<use xlink:href="#SVGID_1_"  style="overflow:visible;"/>
	</clipPath>
	<path class="st1" d="M1011.9,423.6c118.9,13.7,174.7,89.2,174.7,89.2l-153.2,97.8H897.6l-94.8-74.5c0,0,164.2-33.6,160-112.5"/>
</g>
<g>
	<defs>
		<circle id="SVGID_3_" cx="984.7" cy="359" r="216"/>
	</defs>
	<clipPath id="SVGID_4_">
		<use xlink:href="#SVGID_3_"  style="overflow:visible;"/>
	</clipPath>
	<path class="st2" d="M817.7,383.4c0-110.5,74.8-212.2,167-212.2c92.2,0,167,96.5,167,212.2C1151.6,555.5,974,647,974,647
		s-9-130,52.9-199.4l-102,3.9l-3.1,114.2c0,0-39.1,11.5-70.1-54.7C832.8,470.7,817.7,425.3,817.7,383.4z"/>
</g>
<circle class="st0" cx="1574.1" cy="359" r="216"/>
<g>
	<circle class="st3" cx="1702.2" cy="214.3" r="11.2"/>
	<circle class="st3" cx="1448.5" cy="477.2" r="29.6"/>
	<circle class="st3" cx="1686.8" cy="520.8" r="100"/>
	<circle class="st3" cx="1657.9" cy="442.8" r="6.6"/>
	<circle class="st3" cx="1538.3" cy="545.4" r="6.6"/>
	<circle class="st3" cx="1657.9" cy="257.7" r="6.6"/>
	<circle class="st3" cx="1695.6" cy="300.1" r="6.6"/>
	<circle class="st3" cx="1669" cy="483.8" r="5"/>
	<circle class="st3" cx="1490.9" cy="193.3" r="5"/>
	<circle class="st3" cx="1439.2" cy="265.4" r="10.6"/>
</g>
<path class="st4" d="M912.8,591.3l-60.6-49.8l7-21.8c0,0,15.3,9.2,34,18.4s59.6-4.2,59.6-4.2L912.8,591.3z"/>
<path class="st4" d="M1097.8,327.5c0,87.4-50.7,158.3-113.2,158.3S871.5,415,871.5,327.5s50.7-113.2,113.2-113.2
	S1097.8,240.1,1097.8,327.5z"/>
<circle class="st0" cx="358.6" cy="360.5" r="216"/>
<rect x="142.6" y="360.5" class="st5" width="432" height="108"/>
<rect x="250.6" y="342.7" class="st5" width="216" height="125.8"/>
<rect x="312.4" y="342.7" class="st4" width="16.7" height="122.8"/>
<rect x="386.9" y="337.5" class="st4" width="16.7" height="122.8"/>
<g>
	<ellipse class="st6" cx="358.6" cy="531.7" rx="167.5" ry="11.6"/>
</g>
<polygon class="st4" points="358.6,280.2 250.6,342.7 466.6,342.7 "/>
<polygon class="st7" points="358.6,251 364.9,245.7 358.6,237.8 "/>
<line class="st7" x1="357.9" y1="295.1" x2="358.6" y2="251"/>
<g>
	<rect x="205.8" y="378.1" class="st4" width="14.2" height="29.3"/>
	<rect x="205.8" y="421.8" class="st4" width="14.2" height="29.3"/>
	<rect x="279.3" y="378.1" class="st4" width="14.2" height="29.3"/>
	<rect x="279.3" y="421.8" class="st4" width="14.2" height="29.3"/>
	<rect x="350.8" y="378.1" class="st4" width="14.2" height="29.3"/>
	<rect x="350.8" y="421.8" class="st4" width="14.2" height="29.3"/>
	<rect x="423.9" y="378.1" class="st4" width="14.2" height="29.3"/>
	<rect x="423.9" y="421.8" class="st4" width="14.2" height="29.3"/>
	<rect x="166.3" y="378.1" class="st4" width="14.2" height="29.3"/>
	<rect x="166.3" y="421.8" class="st4" width="14.2" height="29.3"/>
</g>
<g>
	<rect x="539" y="378.1" class="st4" width="14.2" height="29.3"/>
	<rect x="539" y="421.8" class="st4" width="14.2" height="29.3"/>
	<rect x="499.5" y="378.1" class="st4" width="14.2" height="29.3"/>
	<rect x="499.5" y="421.8" class="st4" width="14.2" height="29.3"/>
</g>
<g>
	<path class="st8" d="M240.1,489.2c0-12.9,11.6-23.4,26-23.4c14.3,0,26,10.5,26,23.4"/>
	<path class="st8" d="M191,489.2c0-12.9,8-23.4,17.9-23.4s17.9,10.5,17.9,23.4"/>
	<path class="st8" d="M281.4,489.2c0-12.9,8.8-23.4,19.7-23.4s19.7,10.5,19.7,23.4"/>
	<path class="st8" d="M212.9,489.2c0-9.1,8.8-16.4,19.7-16.4s19.7,7.3,19.7,16.4"/>
	<path class="st8" d="M312.4,489.2c0-10.6,9.4-19.2,21.1-19.2s21.1,8.6,21.1,19.2"/>
	<path class="st8" d="M347.4,489.2c0-12.9,12.6-23.4,28.1-23.4s28.1,10.5,28.1,23.4"/>
	<path class="st8" d="M395.3,489.2c0-12.9,12.6-23.4,28.1-23.4s28.1,10.5,28.1,23.4"/>
	<path class="st8" d="M423.4,489.2c0-12.9,11.7-23.4,26.2-23.4c14.5,0,26.2,10.5,26.2,23.4"/>
	<path class="st8" d="M473.3,489.2c0-12.9,11.7-23.4,26.2-23.4c14.5,0,26.2,10.5,26.2,23.4"/>
</g>
<path class="st6" d="M349.7,531.8c0,0,0.3-85.2,8.1-85.2s10.8,84.8,10.8,84.8L349.7,531.8z"/>
<g>
	<polyline class="st8" points="1602.5,322.6 1673.4,337.7 1726.4,317.6 1758.8,326.5 1771,322.6 1822.4,352.2 1822.4,365.8 
		1771,395.4 1758.8,391.4 1726.4,400.4 1673.4,380.3 1602.5,395.4 	"/>
	<polygon class="st8" points="1601.6,257.7 1601.6,460.3 1533.8,460.3 1513.7,403.3 1513.7,314.6 1533.8,257.7 	"/>
	<path class="st8" d="M1619.2,229v5.3c0,4.8-3.1,11-7.7,12.3l-15.2,2.5l-4,3.8h-10.2v-3.8h-5.6v5.9l-22.3-2.8v-3l-40.5-2v-31.2
		l40.5-2v-3.4l22.3-2.5v5.9h5.6v-3.8h10.2l4,3.8l15.4,2.8C1616.2,218.1,1619.2,224.3,1619.2,229z"/>
	<path class="st8" d="M1619.2,484v5.3c0,4.8-3.1,11-7.7,12.3l-15.2,2.5l-4,3.8h-10.2v-3.8h-5.6v5.9l-22.3-2.8v-3l-40.5-2v-31.2
		l40.5-2v-3.4l22.3-2.5v5.9h5.6v-3.8h10.2l4,3.8l15.4,2.8C1616.2,473.1,1619.2,479.3,1619.2,484z"/>
	<polygon class="st8" points="1727.8,394.1 1601.6,408.7 1601.6,309.3 1727.8,323.1 	"/>
	<polyline class="st9" points="1726.4,400.4 1673.4,380.3 1602.5,395.4 	"/>
	<polyline class="st9" points="1602.5,322.6 1673.4,337.7 1726.4,317.6 	"/>
	<rect x="1439.2" y="317.6" class="st8" width="132.4" height="82.8"/>
	<polygon class="st6" points="1615,422.3 1587.4,422.3 1587.4,295.6 1615,295.6 1637.4,359 	"/>
	<polygon class="st6" points="1497.8,400.4 1506.8,422.3 1483.9,422.3 1475,400.4 1475,313.7 1483.9,295.6 1506.8,295.6 
		1497.8,313.7 	"/>
	<path class="st6" d="M1771,322.6c0,0-26.8,24.2-26.8,36.4s26.8,36.4,26.8,36.4l8-4.6c0,0-21.5-22.4-21.5-32.4
		c0-10,21.2-31.3,21.2-31.3L1771,322.6z"/>
	<polygon class="st6" points="1325.7,332.4 1330.2,342.5 1392.8,329.2 1388.2,320.2 	"/>
	<polygon class="st6" points="1325.7,386.8 1330.2,376.7 1392.8,390 1388.2,399 	"/>
	<path class="st8" d="M1342.4,370.1c0,0,50,45.5,108,37.9v-95.4c-45.1-17.3-107.7,34.7-107.7,34.7c-5,1.6-8.3,6.2-8.3,11.5v0
		C1334.3,363.9,1337.5,368.4,1342.4,370.1z"/>
	<rect x="1325.7" y="349.2" class="st6" width="62.5" height="20.8"/>
	<line class="st10" x1="1449.8" y1="408" x2="1449.8" y2="309.9"/>
	<line class="st10" x1="1566.5" y1="408" x2="1566.5" y2="309.9"/>
	<rect x="1581.1" y="209.1" class="st6" width="14.2" height="44.8"/>
	<rect x="1582.1" y="463.1" class="st6" width="14.2" height="44.8"/>
</g>
<ellipse class="st0" cx="1044.7" cy="352.1" rx="8.3" ry="12.3"/>
<ellipse class="st0" cx="925.1" cy="352.1" rx="8.3" ry="12.3"/>
<g>
	<path class="st11" d="M1013.5,359.3c0,0,3.3-22.3,43.5-20.3c14.9,0.7,14.7-5.1,14.7-5.1"/>
	<path class="st11" d="M1009.2,333.9c18.1,0,54.8-18.1,77.6-6.4"/>
	<path class="st11" d="M956.3,359.3c0,0-3.3-22.3-43.5-20.3c-14.9,0.7-14.7-5.1-14.7-5.1"/>
	<path class="st11" d="M960.6,333.9c-18.1,0-54.8-18.1-77.6-6.4"/>
	<path class="st11" d="M1005.4,417.6c0,5.8-7.3,10.6-13.1,10.7c-0.4,1.3-1.1,2.5-2,3.5c-1.4,1.5-3.4,2.4-5.6,2.4
		c-3.7,0-6.8-2.5-7.7-5.9c-5.8-0.1-13.1-4.9-13.1-10.7"/>
	<line class="st11" x1="1020.1" y1="451.5" x2="956.3" y2="451.5"/>
</g>
<path class="st6" d="M1118.5,352.4c-74.1,0-134.2-60.1-134.2-134.2l24.8-24.8l77.6,38.7L1118.5,352.4z"/>
<g>
	<path class="st12" d="M975,514.8H778.3c-6.5,0-11.7-5.2-11.7-11.7V392.1c0-6.5,5.2-11.7,11.7-11.7H975c6.5,0,11.7,5.2,11.7,11.7
		V503C986.8,509.5,981.5,514.8,975,514.8z"/>
	<path class="st12" d="M876.7,384.8l4.5-12.5c1.7-4.5,3.1-6.8,6.8-6.8h49c3.8,0,5.7,3.1,6.8,6.8l4.5,12.5"/>
	<path class="st13" d="M967.4,448.8c0,28.7-16.8,53.5-41.2,65.1c-4.3,2.1-8.9,3.7-13.6,4.8c-5.5,1.4-11.3,2.1-17.2,2.1
		c-39.8,0-72-32.2-72-72c0-34.6,24.4-63.5,56.9-70.4c4.9-1,9.9-1.6,15.1-1.6c6.4,0,12.6,0.8,18.5,2.4
		C944.6,387.4,967.4,415.4,967.4,448.8z"/>
	<path class="st12" d="M959.3,448.8c0,25.5-15,47.6-36.6,57.8c-3.8,1.8-7.9,3.3-12.1,4.3c-4.9,1.2-10,1.8-15.3,1.8
		c-35.3,0-64-28.7-64-64c0-30.8,21.7-56.4,50.6-62.6c4.3-0.9,8.8-1.4,13.4-1.4c5.7,0,11.2,0.7,16.4,2.1
		C939.2,394.2,959.3,419.1,959.3,448.8z"/>
	<path class="st13" d="M922.3,448.8c0,10.7-6.3,20-15.4,24.3c-1.6,0.8-3.3,1.4-5.1,1.8c-2.1,0.5-4.2,0.8-6.4,0.8
		c-14.9,0-26.9-12-26.9-26.9c0-12.9,9.1-23.7,21.3-26.3c1.8-0.4,3.7-0.6,5.6-0.6c2.4,0,4.7,0.3,6.9,0.9
		C913.8,425.9,922.3,436.3,922.3,448.8z"/>
	<path class="st12" d="M821.2,384.8h-29c-2.3,0-4.2-1.9-4.2-4.2v-1.3c0-2.3,1.9-4.2,4.2-4.2h29c2.3,0,4.2,1.9,4.2,4.2v1.3
		C825.4,383,823.5,384.8,821.2,384.8z"/>
	<path class="st0" d="M804,514.8H778c-6.3,0-11.4-5.1-11.4-11.4V391.8c0-6.3,5.1-11.4,11.4-11.4H804"/>
	<circle class="st0" cx="967.4" cy="495.2" r="6.6"/>
	<path class="st12" d="M972,384.8h-7.8c-2.3,0-4.2-1.9-4.2-4.2v-1.3c0-2.3,1.9-4.2,4.2-4.2h7.8c2.3,0,4.2,1.9,4.2,4.2v1.3
		C976.2,383,974.3,384.8,972,384.8z"/>
</g>
<path class="st4" d="M928.6,572.4L928.6,572.4c-6.8-3-10.1-10.8-7.4-17.7c0.2-0.4,0.4-0.9,0.6-1.3l19.8-32.9c0.3-0.5,0.5-1,0.7-1.6
	l10.3-29c0.1-0.3,0.2-0.5,0.3-0.8c3.1-6.8,8.3-9.8,15.2-6.8l0,0c7,3.1,6.7,9.7,5.2,18.1c0,0.2-0.1,0.3-0.1,0.5l-2.9,25.4
	c-0.1,1.3-0.6,2.5-1.3,3.6l-21.8,34.7c-0.2,0.3-0.3,0.6-0.5,0.9C943.5,572.4,935.5,575.5,928.6,572.4z"/>
<path class="st4" d="M862.4,549.7l-4.8,1.7c-6,2.1-12.5-1.1-14.5-7l-27.2-41.1l-4.1-49.1c-2.1-6,1.1-12.5,7-14.5l4.8-1.7
	c6-2.1,12.5,1.1,14.5,7l4.1,49.1l27.2,41.1C871.5,541.1,868.4,547.6,862.4,549.7z"/>
<g>
	<path class="st0" d="M967.4,448.8c0,28.7-16.8,53.5-41.2,65.1c-4.3,2.1-8.9,3.7-13.6,4.8c-5.5,1.4-11.3,2.1-17.2,2.1
		c-39.8,0-72-32.2-72-72c0-34.6,24.4-63.5,56.9-70.4c4.9-1,9.9-1.6,15.1-1.6c6.4,0,12.6,0.8,18.5,2.4
		C944.6,387.4,967.4,415.4,967.4,448.8z"/>
	<path class="st12" d="M959.3,448.8c0,25.5-15,47.6-36.6,57.8c-3.8,1.8-7.9,3.3-12.1,4.3c-4.9,1.2-10,1.8-15.3,1.8
		c-35.3,0-64-28.7-64-64c0-30.8,21.7-56.4,50.6-62.6c4.3-0.9,8.8-1.4,13.4-1.4c5.7,0,11.2,0.7,16.4,2.1
		C939.2,394.2,959.3,419.1,959.3,448.8z"/>
	<path class="st0" d="M922.3,448.8c0,10.7-6.3,20-15.4,24.3c-1.6,0.8-3.3,1.4-5.1,1.8c-2.1,0.5-4.2,0.8-6.4,0.8
		c-14.9,0-26.9-12-26.9-26.9c0-12.9,9.1-23.7,21.3-26.3c1.8-0.4,3.7-0.6,5.6-0.6c2.4,0,4.7,0.3,6.9,0.9
		C913.8,425.9,922.3,436.3,922.3,448.8z"/>
</g>
</svg>
